<?xml version="1.0" encoding="utf-8"?>
<!-- Generator: Adobe Illustrator 23.1.0, SVG Export Plug-In . SVG Version: 6.00 Build 0)  -->
<svg version="1.1" id="Layer_1" xmlns="http://www.w3.org/2000/svg" xmlns:xlink="http://www.w3.org/1999/xlink" x="0px" y="0px"
	 viewBox="0 0 76 76" style="enable-background:new 0 0 76 76;" xml:space="preserve">
<style type="text/css">
	.st0{fill:#12284C;}
	.st1{fill:#FFFFFF;}
	.st2{fill:#08BCEB;}
	.st3{fill:#8AD5ED;}
	.st4{fill-rule:evenodd;clip-rule:evenodd;fill:#FFFFFF;}
	.st5{fill-rule:evenodd;clip-rule:evenodd;fill:#08BCEB;}
	.st6{fill-rule:evenodd;clip-rule:evenodd;fill:#12284C;}
</style>
<g>
	<circle class="st0" cx="38" cy="-146.2" r="37.5"/>
	<rect x="14.8" y="-156.4" class="st1" width="10.9" height="17.5"/>
	<path class="st2" d="M25.8-159.4H14.9c-1,0-1.8,0.8-1.8,1.8v21.2c0,1,0.8,1.8,1.8,1.8h10.9c1,0,1.8-0.8,1.8-1.8v-21.2
		C27.6-158.6,26.8-159.4,25.8-159.4z M18.5-158.5h3.6v0.3h-3.6V-158.5z M20.3-135.9c-0.5,0-0.9-0.4-0.9-0.9c0-0.5,0.4-0.9,0.9-0.9
		c0.5,0,0.9,0.4,0.9,0.9C21.2-136.3,20.8-135.9,20.3-135.9z M25.8-139H14.8v-17.5h10.9V-139z"/>
	<g>
		<path class="st2" d="M39.5-135.9c-0.5,0-1,0.4-1,1c0,0.5,0.4,1,1,1h34c0.2-0.7,0.4-1.3,0.6-2H39.5z"/>
	</g>
	<rect x="44.6" y="-159.7" class="st1" width="31.4" height="20.7"/>
	<g>
		<path class="st2" d="M44.6-139.3v-20.3H73c-0.2-0.6-0.5-1.2-0.7-1.8H44.5c-1,0-1.9,0.8-1.9,1.9v20.4c0,1,0.8,1.9,1.9,1.9h30
			c0.2-0.6,0.3-1.3,0.4-2H44.6z"/>
	</g>
	<path class="st3" d="M65.8-127c-0.3-1.2-1.3-2.2-2.5-2.5v-2.2c0-0.5-0.4-1-1-1c-0.5,0-1,0.4-1,1v2.2c-1.2,0.3-2.2,1.3-2.5,2.5H23.9
		c-0.3-1.2-1.3-2.2-2.5-2.5v-2.2c0-0.5-0.4-1-1-1c-0.5,0-1,0.4-1,1v2.2c-1.2,0.3-2.2,1.3-2.5,2.5h-11c0.4,0.7,0.8,1.3,1.3,2h9.7
		c0.4,1.5,1.8,2.7,3.5,2.7c1.7,0,3.1-1.1,3.5-2.7h34.9c0.4,1.5,1.8,2.7,3.5,2.7c1.7,0,3.1-1.1,3.5-2.7h3.1c0.4-0.6,0.9-1.3,1.3-2
		H65.8z"/>
</g>
<g>
	<circle class="st0" cx="38" cy="-52.4" r="37.5"/>
	<path class="st4" d="M37.8-75.6c-10.9,0-19.7,9.6-19.7,21.5c0,6.7,2.8,12.8,7.3,16.7v4.4c0,2.8,2.3,5.1,5.1,5.1h0.1v-8.7
		c0-1.2,1-2.3,2.3-2.3c1.2,0,2.3,1,2.3,2.3v7.4c0,2.2,1.1,3,2.5,3H38c1.4,0,2.5-0.9,2.5-3v-7.4c0-1.2,1-2.3,2.3-2.3
		c1.2,0,2.3,1,2.3,2.3v8.7h0.1c2.8,0,5.1-2.3,5.1-5.1v-4.4c4.5-3.9,7.3-10,7.3-16.7C57.5-65.9,48.7-75.6,37.8-75.6z"/>
	<path class="st5" d="M50.4-48.2c-2.1,3.1-5.7,4.3-8,2.7c-2.3-1.6-2.4-5.4-0.3-8.4c2.1-3.1,5.7-4.3,8-2.7
		C52.4-55,52.5-51.2,50.4-48.2z M33.5-45.4c-2.3,1.6-5.8,0.4-8-2.7c-2.1-3.1-2-6.9,0.3-8.4c2.3-1.6,5.8-0.4,8,2.7
		C35.8-50.8,35.7-47,33.5-45.4z"/>
</g>
<g>
	<circle class="st0" cx="38" cy="135.9" r="37.5"/>
	<g>
		<rect x="29" y="150.8" class="st4" width="18" height="7.6"/>
		<path class="st1" d="M56.4,160.9h-37c-0.6,0-1.1-0.5-1.1-1.1v-0.2c0-0.6,0.5-1.1,1.1-1.1h37c0.6,0,1.1,0.5,1.1,1.1v0.2
			C57.5,160.4,57,160.9,56.4,160.9z"/>
		<path class="st4" d="M60.3,114.8H15.7c-1.8,0-3.3,1.5-3.3,3.3v29.4c0,1.8,1.5,3.3,3.3,3.3h44.6c1.8,0,3.3-1.5,3.3-3.3v-29.4
			C63.6,116.3,62.1,114.8,60.3,114.8z"/>
		<path class="st6" d="M61.3,147.9c0,0.3-0.2,0.6-0.6,0.6H15.1c-0.3,0-0.6-0.2-0.6-0.6v-30.2c0-0.3,0.2-0.6,0.6-0.6h45.6
			c0.3,0,0.6,0.2,0.6,0.6V147.9z"/>
	</g>
	<g>
		<path class="st1" d="M38,121.5c-8.8,0-15.9,8.2-15.9,8.2s7.1,8.2,15.9,8.2c8.8,0,15.9-8.2,15.9-8.2S46.8,121.5,38,121.5z
			 M38,136.9c-4,0-7.2-3.2-7.2-7.2c0-4,3.2-7.2,7.2-7.2c4,0,7.2,3.2,7.2,7.2C45.2,133.7,42,136.9,38,136.9z"/>
		<path class="st2" d="M38,135.8c-3.4,0-6.1-2.8-6.1-6.1c0-3.4,2.8-6.1,6.1-6.1c3.4,0,6.1,2.8,6.1,6.1
			C44.1,133.1,41.4,135.8,38,135.8z M38,125c-2.6,0-4.7,2.1-4.7,4.7c0,2.6,2.1,4.7,4.7,4.7c2.6,0,4.7-2.1,4.7-4.7
			C42.7,127.1,40.6,125,38,125z"/>
	</g>
	<path class="st2" d="M48.7,144.4H27.3c-0.5,0-1-0.4-1-1l0,0c0-0.5,0.4-1,1-1h21.5c0.5,0,1,0.4,1,1l0,0
		C49.7,144,49.3,144.4,48.7,144.4z"/>
	<circle class="st1" cx="42.3" cy="143.4" r="2.2"/>
</g>
<circle class="st0" cx="37.9" cy="38" r="37.5"/>
<path class="st1" d="M53.8,52.3c0,0-13.2-17.1-13.2-24.3s5.9-13.2,13.2-13.2C61.1,14.8,67,20.7,67,28S53.8,52.3,53.8,52.3"/>
<path class="st0" d="M45.4,27c0-4.6,3.7-8.4,8.4-8.4c4.6,0,8.4,3.7,8.4,8.4c0,4.6-3.7,8.4-8.4,8.4C49.2,35.4,45.4,31.6,45.4,27"/>
<path class="st1" d="M22,52.3c0,0-13.2-17.1-13.2-24.3S14.8,14.8,22,14.8c7.3,0,13.2,5.9,13.2,13.2S22,52.3,22,52.3"/>
<path class="st0" d="M13.7,27c0-4.6,3.7-8.4,8.4-8.4c4.6,0,8.4,3.7,8.4,8.4c0,4.6-3.7,8.4-8.4,8.4C17.4,35.4,13.7,31.6,13.7,27"/>
<path class="st2" d="M37.9,68.2c0,0-13.2-17.1-13.2-24.3s5.9-13.2,13.2-13.2c7.3,0,13.2,5.9,13.2,13.2S37.9,68.2,37.9,68.2"/>
<path class="st0" d="M29.6,42.9c0-4.6,3.7-8.4,8.4-8.4c4.6,0,8.4,3.7,8.4,8.4c0,4.6-3.7,8.4-8.4,8.4C33.3,51.2,29.6,47.5,29.6,42.9"
	/>
<g>
</g>
<g>
</g>
<g>
</g>
<g>
</g>
<g>
</g>
<g>
</g>
<g>
</g>
<g>
</g>
<g>
</g>
<g>
</g>
<g>
</g>
<g>
</g>
<g>
</g>
<g>
</g>
<g>
</g>
</svg>
